Coordinates
version=1
nRows=17
nColumns=24
inDegrees=yes

Units are S.I. units (second, meters, Newtons, ...)
Angles are in degrees.

endheader
time	pelvis_tilt	pelvis_list	pelvis_rotation	pelvis_tx	pelvis_ty	pelvis_tz	hip_flexion_r	hip_adduction_r	hip_rotation_r	knee_angle_r	ankle_angle_r	subtalar_angle_r	mtp_angle_r	hip_flexion_l	hip_adduction_l	hip_rotation_l	knee_angle_l	ankle_angle_l	subtalar_angle_l	mtp_angle_l	lumbar_extension	lumbar_bending	lumbar_rotation
      5.91000000	     33.34958771	      5.13464921	      6.07591097	      2.43249876	      0.67742803	     -0.27317496	    -15.10505869	     -8.48689511	    -18.13277620	    -63.43534064	      9.54154663	      5.00773054	      0.00000000	    -27.93063138	      4.06516011	      0.35370542	    -16.53974654	     17.41226219	     12.76946247	      0.00000000	    -59.15165918	      0.92176638	     -2.93195898
      5.91500000	     33.31827677	      5.16928050	      6.57751561	      2.43877398	      0.67807869	     -0.27328889	    -14.42868425	     -8.40566873	    -18.89811159	    -62.36019673	     10.13847075	      5.24717010	      0.00000000	    -28.83902845	      3.72604777	      0.61779087	    -15.85437522	     17.55982596	     13.04733801	      0.00000000	    -59.21394848	      1.27862393	     -3.34162995
      5.92000000	     33.24101188	      5.17116838	      6.98046674	      2.44509911	      0.67858070	     -0.27332954	    -13.69798889	     -8.32278809	    -19.53833499	    -61.21124737	     10.65217283	      5.58483430	      0.00000000	    -29.69382356	      3.40503668	      0.78148247	    -15.17530861	     17.73051625	     13.27849461	      0.00000000	    -59.21328210	      1.57386587	     -3.68814560
      5.92500000	     33.30065557	      5.28851957	      7.51842217	      2.45137514	      0.67908201	     -0.27338692	    -13.25645110	     -8.28004860	    -20.37608348	    -59.88543645	     11.15378844	      5.73817169	      0.00000000	    -30.68447962	      3.08198828	      1.12084400	    -14.52543958	     17.84034312	     13.49819628	      0.00000000	    -59.37311910	      1.90992100	     -4.20497837
      5.93000000	     33.28824071	      5.37504695	      7.91001160	      2.45769274	      0.67939717	     -0.27333302	    -12.70771045	     -8.25666177	    -21.04315178	    -58.51825392	     11.60209979	      5.99651553	      0.00000000	    -31.59317656	      2.80673459	      1.29276240	    -13.88598483	     17.99014460	     13.71627569	      0.00000000	    -59.44911624	      2.12747227	     -4.59840802
      5.93500000	     33.26381386	      5.48097948	      8.25833600	      2.46401303	      0.67958069	     -0.27322970	    -12.17367819	     -8.25624325	    -21.66053707	    -57.06620907	     12.00902438	      6.24280644	      0.00000000	    -32.47779875	      2.56524606	      1.42758807	    -13.27315321	     18.14358449	     13.92813058	      0.00000000	    -59.51602512	      2.30125222	     -4.97578887
      5.94000000	     33.17701969	      5.57518751	      8.50149440	      2.47036407	      0.67959424	     -0.27304796	    -11.55828570	     -8.27014136	    -22.13135779	    -55.56452569	     12.34514940	      6.53717919	      0.00000000	    -33.29077658	      2.37870693	      1.48751944	    -12.67513068	     18.30121433	     14.12776056	      0.00000000	    -59.51709406	      2.39190756	     -5.32169465
      5.94500000	     33.24441426	      5.76213298	      8.85551781	      2.47669563	      0.67962563	     -0.27282617	    -11.25382485	     -8.28731542	    -22.76894343	    -53.86957693	     12.69035199	      6.67195814	      0.00000000	    -34.25717597	      2.16237281	      1.67069932	    -12.11889979	     18.43994062	     14.32630837	      0.00000000	    -59.68262845	      2.49433749	     -5.74013898
      5.95000000	     33.19730808	      5.93286367	      9.06445610	      2.48304570	      0.67942963	     -0.27254366	    -10.78661071	     -8.35138532	    -23.23657517	    -52.16121638	     13.00503137	      6.88494344	      0.00000000	    -35.09060304	      2.03779145	      1.68205091	    -11.59000821	     18.61318633	     14.52462768	      0.00000000	    -59.73455159	      2.49143815	     -6.06749773
      5.95500000	     33.09393978	      6.10279647	      9.19877366	      2.48941930	      0.67908313	     -0.27218541	    -10.26115116	     -8.42150440	    -23.58319462	    -50.38834717	     13.25294289	      7.12139695	      0.00000000	    -35.85388949	      1.96453424	      1.64661782	    -11.08972633	     18.78745915	     14.70430080	      0.00000000	    -59.73170418	      2.42237289	     -6.39767221
      5.96000000	     33.04128947	      6.30999138	      9.34999965	      2.49581043	      0.67867494	     -0.27180927	     -9.86949347	     -8.48960222	    -23.95164563	    -48.47863468	     13.49951868	      7.30599241	      0.00000000	    -36.66179491	      1.89585828	      1.61974564	    -10.62598229	     18.96471284	     14.91893464	      0.00000000	    -59.76823715	      2.33976250	     -6.75290817
      5.96500000	     33.03448888	      6.54844235	      9.50140589	      2.50218841	      0.67818330	     -0.27140582	     -9.58821814	     -8.55774554	    -24.32794217	    -46.45452935	     13.75954754	      7.42189644	      0.00000000	    -37.50327854	      1.84064071	      1.61402570	    -10.20604166	     19.16403878	     15.09603125	      0.00000000	    -59.86848789	      2.22531718	     -7.04457603
      5.97000000	     32.82384179	      6.77514738	      9.45983461	      2.50857074	      0.67742472	     -0.27088378	     -9.00394856	     -8.67904653	    -24.40562816	    -44.44807014	     13.97160134	      7.49136728	      0.00000000	    -38.09296858	      1.95477725	      1.51887495	     -9.86386546	     19.31880970	     15.09813144	      0.00000000	    -59.76408566	      1.95487940	     -7.30375192
      5.97500000	     32.83483258	      7.03329741	      9.61608455	      2.51501497	      0.67676685	     -0.27043119	     -8.86005736	     -8.71579770	    -24.75833029	    -42.19637211	     14.19545862	      7.72200062	      0.00000000	    -38.93960315	      1.88751238	      1.43019797	     -9.49279422	     19.59571044	     15.48940445	      0.00000000	    -59.87325239	      1.81985654	     -7.62932295
      5.98000000	     32.60012970	      7.29216107	      9.53986033	      2.52143222	      0.67580621	     -0.26985394	     -8.33395012	     -8.83169077	    -24.72406833	    -39.99988272	     14.37602049	      7.78361976	      0.00000000	    -39.48194122	      2.05582314	      1.34913429	     -9.21410892	     19.78506686	     15.44874733	      0.00000000	    -59.75103445	      1.47743667	     -7.88269836
      5.98500000	     32.54677322	      7.53812402	      9.61649411	      2.52794219	      0.67494457	     -0.26936210	     -8.19116671	     -8.84266996	    -24.93015631	    -37.55467448	     14.54691389	      8.09038947	      0.00000000	    -40.22066666	      2.04059707	      1.16301613	     -8.94422417	     20.06565152	     15.86999773	      0.00000000	    -59.77819397	      1.30553696	     -8.22996680
      5.99000000	     32.48746540	      7.78921333	      9.64309173	      2.53443444	      0.67398752	     -0.26883616	     -8.06412490	     -8.83327177	    -25.01569540	    -35.01958485	     14.70721405	      8.23552247	      0.00000000	    -40.92967717	      2.07538626	      1.05036083	     -8.72450298	     20.30197318	     16.03753053	      0.00000000	    -59.80732901	      1.08182882	     -8.52718651
